<svg width="15" height="15" viewBox="0 0 15 15" fill="none" xmlns="http://www.w3.org/2000/svg">
<path d="M9.12975 3.91331V1.9568H8.1515V0.978516H6.84714V1.9568H5.86888V3.91331H4.89062V8.15247H10.108V3.91331H9.12975Z" fill="#7E7DA0"/>
<path d="M14.0219 4.89134V2.9348H13.0437V1.95654H12.0654V0.978255H10.1089V0H8.15234V0.978255H9.1306V1.95654H10.1089V3.91305H11.0871V7.17395H13.0437V6.19567H15.0002V4.89134H14.0219Z" fill="#7E7DA0"/>
<path d="M4.89134 0V0.978255H2.9348V1.95654H1.95654V2.9348H0.978255V4.89134H0V6.19567H1.95654V7.17395H3.91305V3.91305H4.89134V1.95654H5.86959V0.978255H6.84785V0H4.89134Z" fill="#7E7DA0"/>
<path d="M13.0437 7.17383V8.15208H11.0871V11.0869H10.1089V13.0434H9.1306V14.0217H8.15234V14.9999H10.1089V14.0217H12.0654V13.0434H13.0437V12.0651H14.0219V10.1086H15.0002V7.17383H13.0437Z" fill="#7E7DA0"/>
<path d="M4.89062 9.13037V11.0869H5.86888V13.0434H6.84714V14.0217H8.1515V13.0434H9.12975V11.0869H10.108V9.13037H4.89062Z" fill="#7E7DA0"/>
<path d="M5.86959 14.0217V13.0434H4.89134V11.0869H3.91305V8.15208H1.95654V7.17383H0V10.1086H0.978255V12.0651H1.95654V13.0434H2.9348V14.0217H4.89134V14.9999H6.84785V14.0217H5.86959Z" fill="#7E7DA0"/>
</svg>
